<?xml version="1.0" standalone="no"?><!DOCTYPE svg PUBLIC "-//W3C//DTD SVG 1.1//EN" "http://www.w3.org/Graphics/SVG/1.1/DTD/svg11.dtd"><svg t="1728544245457" class="icon" viewBox="0 0 1024 1024" version="1.1" xmlns="http://www.w3.org/2000/svg" p-id="12871" xmlns:xlink="http://www.w3.org/1999/xlink" width="256" height="256"><path d="M884.288 0c73.92 0 134.464 62.208 139.392 140.736L1024 151.04v554.112c0 80-57.344 145.408-130.048 150.72l-9.6 0.32H593.6a43.2 43.2 0 0 0-16.768 3.328l-5.12 2.56-270.528 155.968a43.072 43.072 0 0 1-21.76 5.952 46.208 46.208 0 0 1-41.152-26.752 52.8 52.8 0 0 1-4.864-15.488l-0.64-8.192v-117.504H139.584c-73.92 0-134.4-62.08-139.264-140.672L0 705.024V151.04C0 71.04 57.344 5.632 130.048 0.32L139.648 0h744.64z m0 83.072H139.52c-32.32 0-59.072 26.56-62.464 60.608l-0.384 7.36v553.984c0 34.944 24.576 63.872 56 67.584l6.848 0.384h169.856v146.112l225.984-130.368c14.208-8.32 29.824-13.44 45.888-15.104l12.032-0.64h291.136c32.256 0 59.008-26.56 62.4-60.608l0.384-7.36h-0.128V151.04c0-34.944-24.576-63.872-56-67.584l-6.784-0.384z m-372.48 147.52c19.328 0 35.328 15.424 38.08 35.456l0.384 6.144v133.632h123.52c21.248 0 38.464 18.688 38.592 41.6 0 20.992-14.272 38.208-32.768 41.152l-5.696 0.448H550.4V622.72c0 23.04-17.28 41.6-38.4 41.6-19.328 0-35.328-15.424-38.08-35.456l-0.448-6.144V488.96h-123.52c-21.184 0-38.4-18.624-38.4-41.6 0-20.928 14.208-38.144 32.704-41.152l5.76-0.448h123.328V272.192c0-23.04 17.28-41.6 38.464-41.6z" fill="#000000" p-id="12872"></path></svg>