<?xml version="1.0" standalone="no"?><!DOCTYPE svg PUBLIC "-//W3C//DTD SVG 1.1//EN" "http://www.w3.org/Graphics/SVG/1.1/DTD/svg11.dtd"><svg t="1728270725924" class="icon" viewBox="0 0 1024 1024" version="1.1" xmlns="http://www.w3.org/2000/svg" p-id="11229" xmlns:xlink="http://www.w3.org/1999/xlink" width="256" height="256"><path d="M916.8896 479.5904c24.2688-23.6544 32.8704-58.4192 22.3744-90.624-10.496-32.256-37.8368-55.296-71.3728-60.16l-165.12-24.0128a37.09952 37.09952 0 0 1-28.0064-20.3776l-73.8304-149.6064c-15.0016-30.4128-45.3632-49.3056-79.2576-49.3056-33.8944 0-64.3072 18.8928-79.3088 49.3056L368.4864 284.416a37.30432 37.30432 0 0 1-28.0064 20.3776l-165.12 24.0128c-33.536 4.864-60.8768 27.9552-71.3728 60.16-10.496 32.256-1.8944 66.9696 22.3744 90.624l119.4496 116.48a37.18144 37.18144 0 0 1 10.7008 32.9216l-28.2112 164.4544c-5.7344 33.4336 7.7312 66.56 35.1744 86.4768 27.4432 19.9168 63.1296 22.528 93.1328 6.7072l147.6608-77.6192a37.36576 37.36576 0 0 1 34.6624 0l147.6608 77.6192c13.056 6.8608 27.1872 10.24 41.216 10.24 18.2784 0 36.4032-5.7344 51.8656-16.9984 27.4432-19.9168 40.9088-53.0432 35.1744-86.4768l-28.2112-164.4544c-2.048-12.0832 1.9456-24.3712 10.7008-32.9728l119.552-116.3776z m-155.1872 79.8208a88.46336 88.46336 0 0 0-25.4464 78.2848l28.2112 164.4544c2.4576 14.2848-3.072 27.904-14.7968 36.4032-11.7248 8.4992-26.368 9.5744-39.2192 2.816l-147.6608-77.6192a88.54016 88.54016 0 0 0-82.2784 0L332.8 841.3184c-12.8512 6.7584-27.4944 5.6832-39.2192-2.816-11.7248-8.4992-17.2544-22.1184-14.7968-36.4032l28.2112-164.4544c4.9152-28.672-4.608-57.9584-25.4464-78.2848L162.0992 442.9312c-10.3936-10.1376-13.8752-24.3712-9.4208-38.144 4.5056-13.7728 15.7184-23.2448 30.0544-25.344l165.12-24.0128a88.32 88.32 0 0 0 66.56-48.384l73.8304-149.6064c6.4-13.0048 18.8928-20.736 33.3824-20.736 14.4896 0 26.9824 7.7312 33.3824 20.736l73.8304 149.6064c12.9024 26.112 37.7856 44.1856 66.56 48.384l165.12 24.0128c14.336 2.0992 25.5488 11.5712 30.0544 25.344 4.4544 13.7728 0.9728 28.0576-9.4208 38.144l-119.4496 116.48z" fill="#2c2c2c" p-id="11230"></path><path d="M656.9984 431.4112c-59.6992-1.7408-191.3344-5.376-260.4032-7.8336-6.4512-0.2048-7.8848 9.728-1.7408 11.776l126.6176 41.3696c8.2944 2.7136 10.3424 14.4896 3.5328 20.3264l-143.0016 122.4192c-8.448 7.2704-2.9184 22.0672 7.7824 20.736l247.04-30.3616c6.4-0.768 6.6048-10.8544 0.256-11.9296l-104.2944-17.7664c-9.4208-1.5872-12.3392-14.848-4.608-20.9408 33.5872-26.4704 99.1744-78.2336 134.8608-106.8032 8.1408-6.5024 4.096-20.6848-6.0416-20.992z" fill="#2c2c2c" p-id="11231"></path></svg>