<?xml version="1.0" standalone="no"?><!DOCTYPE svg PUBLIC "-//W3C//DTD SVG 1.1//EN" "http://www.w3.org/Graphics/SVG/1.1/DTD/svg11.dtd"><svg t="1728552826218" class="icon" viewBox="0 0 1024 1024" version="1.1" xmlns="http://www.w3.org/2000/svg" p-id="8379" xmlns:xlink="http://www.w3.org/1999/xlink" width="256" height="256"><path d="M724.057832 127.76294c23.456477 0 42.620918 19.064626 42.620918 42.620918v681.435618c0 23.456477-19.064626 42.620918-42.620918 42.620918H298.148094c-23.456477 0-42.620918-19.064626-42.620918-42.620918V170.383858c0-23.456477 19.064626-42.620918 42.620918-42.620918h425.909738m0-42.620918H298.148094c-47.012769 0-85.142022 38.129252-85.142021 85.142021v681.435618c0 47.012769 38.129252 85.142022 85.142021 85.142021h425.909738c47.012769 0 85.142022-38.129252 85.142022-85.142021V170.383858c0-47.112584-38.129252-85.241836-85.142022-85.241836z" p-id="8380"></path><path d="M724.057832 127.76294c19.064626 0 35.434253 12.676479 40.624622 30.742957-5.889073 48.809436-25.552588 94.624427-57.193878 132.653865-32.639439 39.227215-75.559801 67.574617-124.169607 81.848134L565.65175 378.198265l-21.859441 2.794814c-12.676479 1.597037-23.057218 2.395555-32.739253 2.395555-9.682035 0-20.062774-0.798518-32.739253-2.395555l-21.859441-2.794814-17.667219-5.190369c-48.609806-14.273516-91.530169-42.620918-124.169607-81.848134-31.641291-38.029438-51.304806-83.744614-57.193879-132.653865 5.190369-18.066478 21.559996-30.742957 40.624623-30.742957h426.009552m0-42.620918H298.148094c-42.221659 0-76.957208 30.742957-83.744614 70.96832 11.578516 122.7722 97.618871 223.884589 212.405887 257.621991 4.691295 42.620918 40.325178 75.95906 84.243689 75.95906s79.652208-33.338142 84.243688-75.95906c114.886831-33.837216 200.827371-134.84979 212.405888-257.621991-6.687591-40.225363-41.522955-70.96832-83.6448-70.96832zM511.053056 425.909738c12.975924 0 25.652403-1.097963 38.129252-2.695-6.887221 14.173701-21.360367 24.055366-38.129252 24.055366-16.768886 0-31.242031-9.881665-38.129253-24.055366 12.576664 1.597037 25.253144 2.695 38.129253 2.695z" p-id="8381"></path></svg>