<?xml version="1.0" standalone="no"?><!DOCTYPE svg PUBLIC "-//W3C//DTD SVG 1.1//EN" "http://www.w3.org/Graphics/SVG/1.1/DTD/svg11.dtd"><svg t="1728554181709" class="icon" viewBox="0 0 1024 1024" version="1.1" xmlns="http://www.w3.org/2000/svg" p-id="7920" xmlns:xlink="http://www.w3.org/1999/xlink" width="256" height="256"><path d="M512 0a512 512 0 1 0 512 512A512 512 0 0 0 512 0z m0 921.6a409.6 409.6 0 1 1 409.6-409.6 409.6 409.6 0 0 1-409.6 409.6z" fill="#070707" p-id="7921"></path><path d="M512 268.8a64 64 0 0 0-64 64v179.2a69.632 69.632 0 0 0 1.28 12.544 42.496 42.496 0 0 0 1.536 5.376l2.048 6.656 3.328 5.888a47.616 47.616 0 0 0 2.56 5.12 94.208 94.208 0 0 0 7.936 9.728l124.16 124.16a70.4 70.4 0 0 0 49.408 20.48 61.696 61.696 0 0 0 38.912-13.568 64.256 64.256 0 0 0 4.864-94.976l-100.608-100.352a25.6 25.6 0 0 1-7.424-18.176v-138.496a66.56 66.56 0 0 0-57.344-67.328z" fill="#070707" p-id="7922"></path></svg>