<?xml version="1.0" standalone="no"?><!DOCTYPE svg PUBLIC "-//W3C//DTD SVG 1.1//EN" "http://www.w3.org/Graphics/SVG/1.1/DTD/svg11.dtd"><svg t="1728140626366" class="icon" viewBox="0 0 1024 1024" version="1.1" xmlns="http://www.w3.org/2000/svg" p-id="9561" xmlns:xlink="http://www.w3.org/1999/xlink" width="256" height="256"><path d="M580.608 675.84c5.632 0 19.456 0 19.456 18.432 0 7.68-3.072 18.944-19.456 18.944H458.24v75.264c0 10.752 5.12 16.896 17.408 16.896h124.928c19.456 0 19.456 16.896 19.456 19.456 0 4.096 0 19.456-19.456 19.456H462.848c-35.328 0-49.664-12.288-49.664-49.152V601.6c0-35.84 13.824-49.152 49.664-49.152h131.584c19.456 0 19.456 15.872 19.456 19.456 0 6.144-2.048 19.456-19.456 19.456H475.648c-11.776 0-17.408 6.144-17.408 16.896v67.584h122.368z m279.04 156.672c0 17.408-13.312 19.968-20.992 19.968-12.8 0-22.016-5.12-22.016-19.968V706.56c0-17.92-5.632-48.128-45.056-48.128-44.544 0-53.76 39.424-53.76 53.76v120.32c0 16.896-11.776 19.968-20.992 19.968-13.312 0-22.016-5.632-22.016-19.968V642.56c0-19.456 15.36-20.48 20.992-20.48 12.288 0 21.504 5.12 21.504 20.48v13.312c10.752-13.312 30.208-33.792 66.56-33.792 46.08 0 74.752 27.136 74.752 78.336l1.024 132.096z" fill="#999999" p-id="9562"></path><path d="M906.752 630.272c-12.8 0-22.528-10.24-22.528-22.528 0-2.048 0-3.584 0.512-5.632 8.192-32.256 12.288-65.024 12.288-98.816 0-219.648-178.176-398.336-397.312-398.336-12.8 0-22.528-10.24-22.528-22.528s10.24-22.528 22.528-22.528c244.224 0 442.88 199.168 442.88 443.904 0 37.376-4.608 74.24-13.824 110.08-2.56 9.216-11.776 16.384-22.016 16.384M499.712 947.2c-244.224 0-442.88-199.168-442.88-443.904 0-35.328 4.096-70.656 12.288-104.448 3.072-12.288 15.36-19.968 27.648-16.896s19.968 15.36 16.896 27.648c-7.68 30.72-11.264 61.952-11.264 93.696 0 219.648 178.176 398.336 397.312 398.336 12.8 0 22.528 10.24 22.528 22.528 0 12.8-10.24 23.04-22.528 23.04" fill="#999999" p-id="9563"></path><path d="M331.264 304.64h90.624c14.848 0 20.992-7.68 20.992-20.992v-79.872c0-14.848-7.68-20.992-20.992-20.992h-90.624V304.64z m-45.056-121.856h-89.6c-13.824 0-20.992 6.656-20.992 20.992v79.872c0 13.312 6.144 20.992 20.992 20.992h89.6V182.784z m45.056 256.512c0 5.12 0 20.992-22.016 20.992-20.992 0-23.04-12.288-23.04-20.992V345.6H185.344c-36.864 0-54.272-12.288-54.272-54.272v-95.744c0-41.984 17.408-53.76 54.272-53.76h100.864v-46.08c0-6.144 1.024-20.48 21.504-20.48 16.896 0 23.552 5.632 23.552 20.48v46.08H432.64c37.376 0 54.272 12.288 54.272 53.76v95.744c0 40.448-15.872 54.272-54.272 54.272H331.264v93.696z" fill="#0046AA" p-id="9564"></path></svg>