<?xml version="1.0" standalone="no"?><!DOCTYPE svg PUBLIC "-//W3C//DTD SVG 1.1//EN" "http://www.w3.org/Graphics/SVG/1.1/DTD/svg11.dtd"><svg t="1728135349803" class="icon" viewBox="0 0 1206 1024" version="1.1" xmlns="http://www.w3.org/2000/svg" p-id="6303" xmlns:xlink="http://www.w3.org/1999/xlink" width="301.5" height="256"><path d="M299.325364 232.026714m-41.776702 0a41.776702 41.776702 0 1 0 83.553404 0 41.776702 41.776702 0 1 0-83.553404 0Z" fill="#F4ADA2" p-id="6304"></path><path d="M236.685089 326.28447a104.565649 104.565649 0 0 0 125.28055 0 213.095872 213.095872 0 0 0-33.351982-57.337657 45.889948 45.889948 0 0 1-57.634999 1.040701 247.785897 247.785897 0 0 0-34.293569 56.296956z" fill="#F4ADA2" p-id="6305"></path><path d="M946.839472 711.987998H126.420365a27.256449 27.256449 0 0 1-27.256449-27.256449V27.256449a27.256449 27.256449 0 0 1 27.256449-27.256449h820.419107a27.306006 27.306006 0 0 1 27.256448 27.256449v657.4751a27.306006 27.306006 0 0 1-27.256448 27.256449zM126.420365 4.955718a22.300731 22.300731 0 0 0-22.300731 22.300731v657.4751a22.300731 22.300731 0 0 0 22.300731 22.300731h820.419107a22.350288 22.350288 0 0 0 22.30073-22.300731V27.256449a22.350288 22.350288 0 0 0-22.30073-22.300731z" fill="#89E0EC" p-id="6306"></path><path d="M103.475391 56.544742h866.309055v4.955718H103.475391z" fill="#89E0EC" p-id="6307"></path><path d="M824.036781 32.559067m-16.155641 0a16.155641 16.155641 0 1 0 32.311281 0 16.155641 16.155641 0 1 0-32.311281 0Z" fill="#36D5D8" p-id="6308"></path><path d="M873.59396 32.559067m-16.15564 0a16.155641 16.155641 0 1 0 32.311281 0 16.155641 16.155641 0 1 0-32.311281 0Z" fill="#FFCF2D" p-id="6309"></path><path d="M923.15114 32.559067m-16.155641 0a16.155641 16.155641 0 1 0 32.311281 0 16.155641 16.155641 0 1 0-32.311281 0Z" fill="#F94F46" p-id="6310"></path><path d="M299.325364 349.279001a107.638194 107.638194 0 1 1 107.638194-107.638194A107.786865 107.786865 0 0 1 299.325364 349.279001z m0-210.32067a102.682476 102.682476 0 1 0 102.682476 102.682476A102.831147 102.831147 0 0 0 299.325364 138.958331z" fill="#FFFA4A" p-id="6311"></path><path d="M299.325364 519.805256m-41.776702 0a41.776702 41.776702 0 1 0 83.553404 0 41.776702 41.776702 0 1 0-83.553404 0Z" fill="#66B0F0" p-id="6312"></path><path d="M236.685089 614.063011a104.664763 104.664763 0 0 0 125.28055 0 211.510042 211.510042 0 0 0-33.351982-57.238542 45.989063 45.989063 0 0 1-57.634999 0.991143 247.785897 247.785897 0 0 0-34.293569 56.247399z" fill="#66B0F0" p-id="6313"></path><path d="M299.325364 637.1071a107.687751 107.687751 0 1 1 107.638194-107.638194 107.836423 107.836423 0 0 1-107.638194 107.638194z m0-210.370227a102.732033 102.732033 0 1 0 102.682476 102.732033A102.831147 102.831147 0 0 0 299.325364 426.736873z" fill="#FFFA4A" p-id="6314"></path><path d="M551.918308 195.503073H459.395054a2.477859 2.477859 0 0 1-2.477859-2.477859 2.477859 2.477859 0 0 1 2.477859-2.477859h92.523254a2.477859 2.477859 0 0 1 2.477859 2.477859 2.527416 2.527416 0 0 1-2.477859 2.477859zM487.493975 244.168223H459.395054a2.477859 2.477859 0 0 1 0-4.955718h28.098921a2.477859 2.477859 0 0 1 0 4.955718zM613.864782 244.168223h-110.958524a2.477859 2.477859 0 0 1 0-4.955718h110.958524a2.477859 2.477859 0 0 1 0 4.955718zM613.864782 292.783816h-28.09892a2.527416 2.527416 0 0 1-2.477859-2.477858 2.477859 2.477859 0 0 1 2.477859-2.477859h28.09892a2.477859 2.477859 0 0 1 2.477859 2.477859 2.477859 2.477859 0 0 1-2.477859 2.477858zM570.353579 292.783816H459.395054a2.477859 2.477859 0 0 1-2.477859-2.477858 2.477859 2.477859 0 0 1 2.477859-2.477859h110.958525a2.477859 2.477859 0 0 1 2.477859 2.477859 2.477859 2.477859 0 0 1-2.477859 2.477858zM613.864782 195.503073h-46.236848a2.477859 2.477859 0 0 1-2.477859-2.477859 2.477859 2.477859 0 0 1 2.477859-2.477859h46.236848a2.477859 2.477859 0 0 1 2.477859 2.477859 2.477859 2.477859 0 0 1-2.477859 2.477859zM551.918308 483.281614H459.395054a2.477859 2.477859 0 0 1 0-4.955717h92.523254a2.477859 2.477859 0 0 1 0 4.955717zM487.493975 531.946765H459.395054a2.477859 2.477859 0 0 1-2.477859-2.477859 2.477859 2.477859 0 0 1 2.477859-2.477859h28.098921a2.477859 2.477859 0 0 1 2.477859 2.477859 2.527416 2.527416 0 0 1-2.477859 2.477859zM613.864782 531.946765h-110.958524a2.477859 2.477859 0 0 1-2.477859-2.477859 2.477859 2.477859 0 0 1 2.477859-2.477859h110.958524a2.477859 2.477859 0 0 1 2.477859 2.477859 2.477859 2.477859 0 0 1-2.477859 2.477859zM613.864782 580.562358h-28.09892a2.477859 2.477859 0 0 1 0-4.955718h28.09892a2.477859 2.477859 0 0 1 0 4.955718zM570.353579 580.562358H459.395054a2.477859 2.477859 0 0 1 0-4.955718h110.958525a2.477859 2.477859 0 0 1 0 4.955718zM613.864782 483.281614h-46.236848a2.477859 2.477859 0 0 1 0-4.955717h46.236848a2.477859 2.477859 0 0 1 0 4.955717z" fill="#89E0EC" p-id="6315"></path><path d="M666.197164 581.157044a7.483134 7.483134 0 0 1-6.739776-4.21236l-80.381746-165.966994a7.433577 7.433577 0 1 1 13.380439-6.442434l80.381745 166.016552a7.38402 7.38402 0 0 1-6.640662 10.654793z" fill="#FFCF2D" p-id="6316"></path><path d="M891.781445 581.157044h-225.633838a7.433577 7.433577 0 0 1 0-14.867154h225.633838a7.433577 7.433577 0 0 1 0 14.867154z" fill="#9B3C82" p-id="6317"></path><path d="M668.823695 177.959832l5.253061 10.605236 11.745051 1.734501-8.474278 8.276049 1.982288 11.695495-10.506122-5.500847-10.506123 5.500847 2.031845-11.695495-8.523835-8.276049 11.745051-1.734501 5.253062-10.605236zM727.202052 177.959832l5.253061 10.605236 11.745052 1.734501-8.474278 8.276049 1.982287 11.695495-10.506122-5.500847-10.506122 5.500847 2.031844-11.695495-8.523835-8.276049 11.745052-1.734501 5.253061-10.605236zM785.92731 177.959832l5.253061 10.605236 11.745051 1.734501-8.474277 8.276049 1.982287 11.695495-10.506122-5.500847-10.506122 5.500847 2.031844-11.695495-8.523835-8.276049 11.745052-1.734501 5.253061-10.605236zM668.823695 277.767991l5.253061 10.654794 11.745051 1.734501-8.474278 8.276049 1.982288 11.695494-10.506122-5.500847-10.506123 5.500847 2.031845-11.695494-8.523835-8.276049 11.745051-1.734501 5.253062-10.654794zM727.202052 277.767991l5.253061 10.654794 11.745052 1.734501-8.474278 8.276049 1.982287 11.695494-10.506122-5.500847-10.506122 5.500847 2.031844-11.695494-8.523835-8.276049 11.745052-1.734501 5.253061-10.654794zM785.92731 277.767991l5.253061 10.654794 11.745051 1.734501-8.474277 8.276049 1.982287 11.695494-10.506122-5.500847-10.506122 5.500847 2.031844-11.695494-8.523835-8.276049 11.745052-1.734501 5.253061-10.654794zM668.823695 227.863911l5.253061 10.654794 11.745051 1.684944-8.474278 8.325606 1.982288 11.695495-10.506122-5.550405-10.506123 5.550405 2.031845-11.695495-8.523835-8.325606 11.745051-1.684944 5.253062-10.654794zM727.202052 227.863911l5.253061 10.654794 11.745052 1.684944-8.474278 8.325606 1.982287 11.695495-10.506122-5.550405-10.506122 5.550405 2.031844-11.695495-8.523835-8.325606 11.745052-1.684944 5.253061-10.654794z" fill="#FFCF2D" p-id="6318"></path><path d="M0 609.652422s54.512897 40.389101 57.2881 77.804772c2.130959 27.454677-13.87601 57.387214-1.982288 83.850748 5.699076 12.587524 16.056526 18.187485 27.008663 25.224604a82.859604 82.859604 0 0 1 28.544936 31.914824s3.667231 24.77859 17.642355 36.72187a296.351933 296.351933 0 0 0 41.47936 26.16619s-11.051251-16.254755-21.309588-56.296955a146.144122 146.144122 0 0 0-16.898998-39.051058c-6.194647-9.911436-15.362726-19.822872-19.822872-31.171466-5.748633-14.123796-1.338044-29.090064-1.387601-43.808546 0-17.791027-1.338044-30.626337-10.605236-46.088177a120.473503 120.473503 0 0 0-16.106083-21.656488c-22.300731-23.291874-53.026182-36.37497-83.850748-43.610318z" fill="#21A0AA" p-id="6319"></path><path d="M167.602381 889.898272c-14.867154-10.555679-37.663456-35.086483-42.817403-56.495184-3.915017-16.304312-15.907855-28.098921-29.734308-41.727145-3.51856-3.469003-7.136234-6.987562-10.70435-10.704351-14.272468-14.867154-13.87601-26.513091-13.033539-54.512898 0.297343-8.672506 0.594686-18.484828 0.594686-30.725451 0-50.59788-69.726952-84.544548-70.470309-84.891448l-1.387601-0.991144c3.072545 1.387601 76.813628 32.063495 76.813628 85.882592 0 12.290181-0.297343 22.598074-0.594686 30.874123-0.842472 28.247592-1.139815 37.762571 11.645937 51.143009 3.568117 3.667231 7.086677 7.185791 10.605237 10.605236 13.826453 13.578667 26.859991 26.413977 31.121909 44.10589 4.955718 19.822872 27.256449 43.758989 40.884673 53.620868z" fill="#58CFCF" p-id="6320"></path><path d="M86.27905 401.859169s-48.466922 126.321251-10.307894 196.791559a89.202923 89.202923 0 0 0 11.695495 15.214054c9.31675 10.704351 23.390989 17.791027 30.874122 30.081208 8.325606 13.677782 6.591105 31.27058 5.996419 46.534192-0.644243 17.74147-5.748633 37.266999-2.725645 55.603155 3.667231 22.300731 21.60693 31.121909 31.567924 49.55718a130.979625 130.979625 0 0 1 10.853022 35.334269c1.635387 8.276049 14.173353 60.955331 6.442433 66.803078 0 0 28.64405-21.755602 29.387408-74.633113 0.3469-24.77859-7.38402-48.863379-11.348594-73.245511-4.162803-25.47239 1.189372-44.898805 5.946861-69.380051 3.716788-19.3273 8.276049-40.091758 6.888448-59.91463-2.230073-30.824566-22.796303-58.725258-56.544742-74.880898s-51.390795-39.596186-58.725257-143.864492z" fill="#21A0AA" p-id="6321"></path><path d="M176.869574 895.101776l-4.955718-1.189372c18.237042-72.948168-7.235348-121.06819-7.483134-121.563761a151.545855 151.545855 0 0 1-9.068964-93.117941c9.911436-46.38552-6.491991-62.590718-39.150172-94.852441l-8.622949-8.573392c-38.951943-38.951943-22.003388-168.49441-21.458259-173.9457l0.3469 8.375163c0 1.238929-12.686638 124.784978 24.77859 162.051977l8.622949 8.573392c32.85641 32.459953 50.944781 50.350094 40.537773 99.411702a149.613125 149.613125 0 0 0 8.573392 89.797609c1.040701 1.93273 26.612205 50.102308 7.879592 125.032764z" fill="#58CFCF" p-id="6322"></path><path d="M300.712965 648.505251a47.178435 47.178435 0 0 0-30.824565 46.633306c1.090258 36.325413-25.323719 61.649131-45.146591 78.201229-13.628224 11.348594-11.794609 28.693607-9.911436 44.601462 2.576973 19.376857 1.338044 31.815709-11.150365 47.277549a79.291487 79.291487 0 0 1-33.946668 24.481247 99.114359 99.114359 0 0 0 84.247205-37.316557c8.375163-10.753908 4.955718-22.498959 5.550404-35.284711s2.428302-28.297149 10.90258-38.803272c15.412283-19.079514 37.415671-35.235155 35.235154-57.238542s-24.77859-41.776702-4.955718-72.551711z" fill="#21A0AA" p-id="6323"></path><path d="M180.834148 896.687606l-2.329187-4.361032a134.250399 134.250399 0 0 0 46.930649-40.389101 50.052751 50.052751 0 0 0 11.100808-24.77859 97.032957 97.032957 0 0 0 0-13.132653 98.172773 98.172773 0 0 1 0-13.231766 52.233267 52.233267 0 0 1 19.129071-39.051058 73.195954 73.195954 0 0 0 22.548517-26.562648 51.589024 51.589024 0 0 0 3.122102-27.05822c0-3.419445-0.446015-6.838891-0.446015-10.407008a109.620481 109.620481 0 0 1 3.51856-28.99095c1.684944-6.194647 5.599961-9.911436 11.497266-16.552098l4.955718-3.766345a65.71282 65.71282 0 0 0-12.091952 21.95383 105.507235 105.507235 0 0 0-3.320331 27.652906c0 3.419445 0 6.789334 0.446015 9.911436a56.445627 56.445627 0 0 1-3.617675 29.486522 78.052558 78.052558 0 0 1-24.035232 28.396264 47.674007 47.674007 0 0 0-17.196341 35.433383 107.985094 107.985094 0 0 0 0 12.587524 106.30015 106.30015 0 0 1 0 13.776896 55.157141 55.157141 0 0 1-11.992837 27.206891 139.354789 139.354789 0 0 1-48.219136 41.875817z" fill="#58CFCF" p-id="6324"></path><path d="M92.721483 884.694768m6.591105 0l141.287518 0q6.591105 0 6.591105 6.591105l0 0.049557q0 6.591105-6.591105 6.591105l-141.287518 0q-6.591105 0-6.591105-6.591105l0-0.049557q0-6.591105 6.591105-6.591105Z" fill="#FFCF2D" p-id="6325"></path><path d="M237.626676 900.007937H102.385133c-20.91313 11.794609-34.144897 28.891836-34.144897 47.97135 0 35.532498 45.543048 64.424333 101.74089 64.424333s101.691332-28.842278 101.691332-64.424333c0-19.079514-13.231767-36.176741-34.045782-47.97135z" fill="#FFCF2D" p-id="6326"></path><path d="M98.618787 897.530078h142.625563v4.955718H98.618787z" fill="#FFE9A1" p-id="6327"></path><path d="M665.899821 842.075594a150.009582 150.009582 0 0 1 14.421139 5.500847 162.101534 162.101534 0 0 1 27.454678 14.272468c6.591105 4.410589 15.214054 10.803465 16.304312 19.3273s-6.789334 14.024682-14.222911 15.759183a35.631612 35.631612 0 0 1-19.822872-1.635387 84.247205 84.247205 0 0 1-30.775008-21.061801c-0.495572-0.495572-6.343319-5.897304-5.996419-6.541548z" fill="#5B2448" p-id="6328"></path><path d="M673.729855 840.04375s-48.714707 71.51101-60.112858 135.588443l-47.822679-91.730339s15.164497-51.935924 32.410396-80.579974z" fill="#FDB6B0" p-id="6329"></path><path d="M639.485844 902.039781a119.977932 119.977932 0 0 1-35.235154 3.568117c-16.155641-1.437158-34.690026-15.560954-34.690026-15.560954s-66.456178-16.948555-110.462953 15.858297c0 0 11.001694 26.859991 56.495185 39.348401s94.455984 42.569617 94.455984 42.569617 24.283018-76.119828 29.436964-85.783478z" fill="#FFFFFF" p-id="6330"></path><path d="M610.098437 988.616174l-0.545129-0.3469c-0.495572-0.297343-49.557179-30.229879-94.158641-42.52006s-56.742971-39.397958-56.891642-39.645744v-0.3469h0.3469c43.709432-32.559067 110.215167-16.106083 110.859411-15.957412s18.831728 14.024682 34.690025 15.46184a122.307119 122.307119 0 0 0 35.086483-3.51856l1.090258-0.297343-0.545129 0.991144c-4.955718 9.514978-29.387407 84.941006-29.734307 85.73392z m-150.604269-82.562261c1.486715 3.171659 14.123796 27.256449 56.04917 38.753714s88.509123 39.0015 94.158641 42.272274c2.378745-7.433577 23.291874-72.056139 28.99095-84.247205a119.531917 119.531917 0 0 1-34.343125 3.320331c-15.560954-1.387601-33.698882-14.569811-35.036926-15.610511-3.022988-0.743358-67.199535-15.858297-109.81871 15.511397z" fill="#805471" p-id="6331"></path><path d="M579.571214 843.314524l70.718095 36.523641-12.191066 23.440546s-42.371388 8.474278-51.935924 0a99.907274 99.907274 0 0 0-22.251173-14.421139z" fill="#66B0F0" p-id="6332"></path><path d="M569.49624 872.022998l2.021933-4.524571 68.973682 30.765097-2.021933 4.524571z" fill="#FFFFFF" p-id="6333"></path><path d="M596.123312 807.980255s28.842278 39.645744 66.505735 50.399651l8.028263-13.281324s-69.380051-31.716595-74.533998-37.118327z" fill="#953883" p-id="6334"></path><path d="M602.367517 976.871122a18.782171 18.782171 0 0 1-6.095533-1.0407c-7.582248-2.477859-12.240623-8.969849-10.456565-14.42114a9.415864 9.415864 0 0 1 6.541548-5.748633 17.840585 17.840585 0 0 1 10.506122 0.446015 17.493684 17.493684 0 0 1 8.573392 5.897304 8.622949 8.622949 0 0 1-4.955718 14.272468 15.957412 15.957412 0 0 1-4.113246 0.594686z m-5.599961-19.3273a12.637081 12.637081 0 0 0-3.667232 0.495572 6.838891 6.838891 0 0 0-4.955718 4.162803c-1.387601 4.113246 2.576973 9.217635 8.821178 11.299037a15.164497 15.164497 0 0 0 8.96985 0.396458 6.838891 6.838891 0 0 0 4.955718-4.162804 6.838891 6.838891 0 0 0-1.437159-6.244204 15.214054 15.214054 0 0 0-7.384019-4.955718 16.998113 16.998113 0 0 0-5.302618-0.743358z" fill="#825975" p-id="6335"></path><path d="M521.093742 919.087451c-0.693801-25.918405-14.867154-34.690026-14.867153-34.690026l1.288486-2.130958c0.644243 0.396457 15.263611 9.514978 16.006969 36.820984zM542.105987 920.673281h-2.477859c0-26.463534-14.867154-36.325413-14.867154-36.424527l1.338044-2.081402c0.644243 0.446015 16.006969 10.605236 16.006969 38.505929zM557.518269 927.3635h-2.477859c2.576973-32.806853-14.867154-42.767846-14.867153-42.86696l1.189372-2.130959c0.842472 0.198229 18.881285 10.456565 16.15564 44.997919z" fill="#FFC000" p-id="6336"></path><path d="M624.172676 944.708513c-21.061801-4.955718-30.527223-29.436965-30.874123-30.477666l2.27963-0.892029c0 0.247786 9.415864 24.233461 29.139622 28.99095zM617.036442 961.706625c-0.792915-0.792915-1.536273-1.635387-2.27963-2.477859a36.573198 36.573198 0 0 0-16.452984-12.339737 55.950056 55.950056 0 0 0-19.426414-1.139815q-3.270774 0-6.690219 0.297343h-0.396458a28.098921 28.098921 0 0 1-13.52911-4.410589 29.734308 29.734308 0 0 0-10.555679-4.014132 50.449209 50.449209 0 0 0-10.555679 0.297343c-2.031844 0-4.113246 0.446015-6.145091 0.495572h-1.585829c-32.113052 0-63.581861-33.649325-64.919906-35.13604l1.833616-1.684944c0.3469 0.3469 33.005082 35.334269 64.424333 34.293568 1.982287 0 4.014132-0.247786 5.996419-0.446015a48.367807 48.367807 0 0 1 11.051251-0.3469 31.815709 31.815709 0 0 1 11.497266 4.311475 25.571505 25.571505 0 0 0 12.339738 4.113245h0.3469c2.230073 0 4.460146 0 6.591105-0.297343a58.774815 58.774815 0 0 1 20.268886 1.23893 38.902386 38.902386 0 0 1 17.592799 13.083095l2.230073 2.428302z" fill="#825975" p-id="6337"></path><path d="M925.77767 806.939554c-0.3469-0.297343 8.474278-11.844166 9.019407-12.537967a160.020133 160.020133 0 0 1 20.714901-22.994531 32.658181 32.658181 0 0 1 24.183904-7.582248c8.622949 1.139815 10.506122 6.838891 10.258336 14.470696a35.185597 35.185597 0 0 1-6.541548 18.782171 84.247205 84.247205 0 0 1-28.198035 24.43169c-0.594686 0.3469-7.334463 4.658375-7.879592 4.162803z" fill="#5B2448" p-id="6338"></path><path d="M925.876785 798.762619s56.792528 65.217248 115.914242 92.42414l-100.799303 23.044088s-46.484634-27.801578-69.776508-51.737695z" fill="#FDB6B0" p-id="6339"></path><path d="M977.118908 847.675555a120.572618 120.572618 0 0 1-5.45129 34.987369c-5.500847 15.263611-23.936118 29.734308-23.936117 29.734308s-33.153753 59.964187-12.637081 110.85941c0 0 28.842278-3.815903 52.431496-44.601461s65.068577-80.332188 65.068577-80.332188-67.447321-43.213861-75.475585-50.647438z" fill="#FFFFFF" p-id="6340"></path><path d="M934.797077 1023.900886v-0.346901c-20.417558-50.548323 12.339738-110.710739 12.686638-111.305425s18.336156-14.619368 23.737889-29.734307a120.126603 120.126603 0 0 0 5.45129-34.690026v-1.139815l0.842472 0.792915c7.929149 7.284905 74.732227 49.90408 75.426027 50.350094l0.545129 0.3469-0.495572 0.446015c-0.396457 0.396457-41.677588 40.091758-64.969462 80.431302s-52.481053 44.948362-52.778396 44.948362z m13.330881-111.107197c-1.387601 2.626531-32.261724 60.856216-12.686638 110.016939 3.419445-0.644243 29.734308-6.739776 51.638581-44.601462s60.162416-75.772927 64.721677-80.233073c-6.591105-4.21236-63.78009-40.785559-74.33577-49.55718a119.878817 119.878817 0 0 1-5.500846 34.09534c-5.153947 15.015825-22.498959 29.238736-23.837004 30.279436z" fill="#805471" p-id="6341"></path><path d="M905.161884 890.740744l53.22441-59.220829 19.822872 17.890142s-2.527416 43.114746-13.330881 50.201422a98.56923 98.56923 0 0 0-19.525529 17.890142z" fill="#66B0F0" p-id="6342"></path><path d="M926.471471 904.705958l47.18339-58.973044 3.86546 3.092368-47.178435 58.973044z" fill="#FFFFFF" p-id="6343"></path><path d="M875.130233 865.86304s45.493491-17.939699 65.564148-51.589024l-10.753908-11.150365s-48.070464 59.072158-54.81024 62.739389z" fill="#953883" p-id="6344"></path><path d="M1025.58583 915.866234a8.028263 8.028263 0 0 1-4.410589-1.238929 9.217635 9.217635 0 0 1-3.915017-7.780477 17.444127 17.444127 0 0 1 3.072545-9.911436c4.361032-6.690219 11.794609-9.564536 16.601655-6.442434a9.217635 9.217635 0 0 1 3.51856 7.830035 17.493684 17.493684 0 0 1-3.022988 9.911436 15.610512 15.610512 0 0 1-11.844166 7.631805z m6.838891-24.283018a13.132653 13.132653 0 0 0-9.911436 6.591105 15.164497 15.164497 0 0 0-2.676088 8.573392 6.888448 6.888448 0 0 0 2.775202 5.79819c3.617674 2.378745 9.564536 0 13.18221-5.699075a15.214054 15.214054 0 0 0 2.62653-8.573392 6.789334 6.789334 0 0 0-2.725645-5.79819 5.897304 5.897304 0 0 0-3.469002-0.89203z" fill="#825975" p-id="6345"></path><path d="M926.471471 972.064076l-1.734502-1.784059c0.545129-0.545129 13.083095-12.389295 39.645744-6.194647l-0.545129 2.428302c-25.47239-5.847747-37.366113 5.401733-37.366113 5.550404zM930.88206 954.173934l-1.684944-1.833616c0.594686-0.545129 14.322025-12.785752 41.28113-5.699075l-0.644243 2.378744c-25.521947-6.690219-38.803272 5.054832-38.951943 5.153947zM934.846634 939.207666l-1.784058-1.734501c0.594686-0.594686 14.867154-15.46184 47.822678-4.063689l-0.842472 2.329187c-31.072352-10.803465-45.047476 3.320331-45.196148 3.469003z" fill="#FFC000" p-id="6346"></path><path d="M977.168465 895.696462v-2.428302s25.769733-2.973431 35.383827-20.863572l2.180515 1.139815c-10.456565 19.079514-36.474084 22.052945-37.564342 22.152059zM934.053719 1017.260224l-1.139815-2.180516c0.446015 0 42.569617-23.044088 49.55718-53.819097 0.446015-1.93273 0.743358-3.964574 1.0407-5.897305a48.219136 48.219136 0 0 1 2.527417-10.803465 32.50951 32.50951 0 0 1 7.037119-9.911436 25.670619 25.670619 0 0 0 7.235348-11.249479c0.495572-2.180516 0.941586-4.361032 1.387601-6.491991a58.031457 58.031457 0 0 1 6.293762-19.228186 38.902386 38.902386 0 0 1 17.097227-13.727338l2.923874-1.58583 1.189372 2.180516-2.973431 1.58583a36.72187 36.72187 0 0 0-16.106083 12.785752 56.941199 56.941199 0 0 0-5.996419 18.484828c-0.446015 2.180516-0.892029 4.361032-1.437158 6.591105a27.603349 27.603349 0 0 1-7.780477 12.339737 30.229879 30.229879 0 0 0-6.591105 9.217636 49.111165 49.111165 0 0 0-2.329188 10.258336c-0.297343 2.031844-0.644243 4.063689-1.090258 6.095533-7.235348 31.865266-49.061608 54.46334-50.845666 55.35537z" fill="#825975" p-id="6347"></path><path d="M1088.275662 535.068867s86.62595 83.404733-2.973431 162.69622c-54.512897 48.466922-165.174079 19.822872-165.174079 19.822872s52.282824 39.0015 66.05972 48.813822a179.347433 179.347433 0 0 0-38.159028 19.079514c-17.592799 12.141509-40.736002 51.787253-40.736002 51.787253s-16.502541 27.504235-30.824565 30.824565c0 0-72.700382-59.468615-104.615206-118.937231 0 0-38.555486 60.558873-48.466922 128.848667a383.820355 383.820355 0 0 0-52.87751-33.054639c-27.504235-13.776896-52.282824-10.456565-77.656101-34.690025 0 0 36.920099-102.979819 85.387021-152.536999s117.797416-80.381745 151.942312-80.381745 105.755021-8.523835 143.170692-19.129071 114.923099-23.143203 114.923099-23.143203z" fill="#F94F46" p-id="6348"></path><path d="M925.08387 216.663989s-7.334463 20.714901-38.159028 17.345013-18.336156-36.424527-18.336157-36.424527 13.925567-31.567923 66.803078-42.619175 76.318056 37.266999 76.318056 37.266999 13.87601 66.257949 77.110972 86.62595 56.544742 82.958718 56.544742 82.958719a63.879204 63.879204 0 0 0 22.003387 45.889948c22.746745 20.566229 49.210279 33.005082 34.690026 88.806465s-58.923486 35.086483-58.923486 35.086483 25.175047 15.759183 6.442433 29.337851-40.736002 17.840585-90.83831-3.815903-101.344432-313.350046-101.344432-313.350046z" fill="#5B2448" p-id="6349"></path><path d="M951.497846 343.282582s-10.307893-9.514978-18.385713 7.334463-38.159028 133.804385-39.645744 136.579587 2.973431 7.433577 12.042395 7.978706 36.424527 9.66365 41.578473 14.024681 46.980206 5.897304 63.879205 0 50.498766-13.925567 67.447321-10.258336 20.516672 16.898998-2.180516 29.387408 35.532498 8.07782 35.532498 8.07782l29.734308 0.743358s-53.373082-83.503847-69.627838-174.292601-61.054445-58.477472-63.284518-53.323525S951.497846 343.282582 951.497846 343.282582z" fill="#FFCF2D" p-id="6350"></path><path d="M885.289455 228.805498s11.001694 18.187485 0 24.778589 7.73092 11.546823 7.73092 11.546823 11.893723 42.123603 30.824565 38.357257c18.137928-3.568117 17.890142-6.838891 17.890142-6.838891s10.753908 38.406814 9.911436 58.626144c0 0-0.743358 28.247592 28.64405-7.73092s29.33785-39.645744 29.33785-39.645744-27.900692-33.748439-27.900692-49.160722c0-2.576973 0-5.748633-0.297343-9.217635a60.112859 60.112859 0 0 0-5.748633-25.175047 100.303731 100.303731 0 0 0-12.537966 3.419445c-6.591105 2.031844-13.975125-3.51856-19.822872-6.244205a179.793447 179.793447 0 0 0-23.19276-9.316749c-6.888448-2.031844-12.389295 6.888448-18.137928 10.258336a88.112665 88.112665 0 0 1-16.700769 6.343319z" fill="#F4ADA2" p-id="6351"></path><path d="M859.37105 165.273194s19.822872-0.743358 29.387407 4.410589a10.704351 10.704351 0 0 0 9.911436-2.230073c3.86546-3.815903 11.844166-25.868848 27.008663-27.504235s-8.276049 44.601462-8.276049 44.601461 27.008663 37.415671 53.422639 40.190873-6.045976 7.681363-24.778589 5.500847-44.997919-33.797996-48.268693-38.159028a13.083095 13.083095 0 0 0-14.867154-3.320331c-4.807046 2.180516-20.566229-4.410589-23.53966-23.490103z" fill="#F94F46" p-id="6352"></path><path d="M897.728307 190.349126a10.506122 10.506122 0 0 1-5.599962-2.031844 9.564536 9.564536 0 0 1-2.477859-12.884867l0.297343-0.644243a10.654794 10.654794 0 0 1 3.51856-4.955718 7.235348 7.235348 0 0 1 5.847747 0c4.955718 1.982287 6.293762 9.911436 4.955718 14.867154a8.523835 8.523835 0 0 1-4.55926 5.649518 6.541548 6.541548 0 0 1-1.982287 0z m-3.022988-18.336156a8.276049 8.276049 0 0 0-2.477859 3.815903l-0.297343 0.644243a7.483134 7.483134 0 0 0 1.585829 9.911436 6.14509 6.14509 0 0 0 5.500847 1.338044 6.244205 6.244205 0 0 0 3.072545-3.964574c0.941586-3.815903 0-10.258336-3.568116-11.645938a4.608818 4.608818 0 0 0-3.815903-0.099114z" fill="#FFCF2D" p-id="6353"></path><path d="M899.760151 184.253593l0.049557-2.477859 13.925568 0.277521-0.049558 2.477859z" fill="#FFCF2D" p-id="6354"></path><path d="M941.338625 297.243963s8.771621-12.091952 20.268886-7.38402-15.313168 26.661763-15.313168 26.661762a131.326526 131.326526 0 0 0-4.955718-19.277742z" fill="#4E1840" p-id="6355"></path><path d="M915.568891 278.065334a2.477859 2.477859 0 0 1 0-4.955718s3.469003-0.693801 5.401733-8.375163a2.428302 2.428302 0 0 1 2.973431-1.833616 2.527416 2.527416 0 0 1 1.833615 3.022988c-3.072545 11.794609-9.217635 12.141509-10.208779 12.141509z" fill="#AD5188" p-id="6356"></path><path d="M953.480134 255.764603m-12.091952 0a12.091952 12.091952 0 1 0 24.183903 0 12.091952 12.091952 0 1 0-24.183903 0Z" fill="#EC8E91" p-id="6357"></path><path d="M906.004356 228.557712h19.079514v7.433577h-19.079514z" fill="#45103B" p-id="6358"></path><path d="M905.657455 238.865605c0.693801-1.189372 3.617674-0.842472 4.955718-0.792915 4.955718 0.3469 10.159222 0.644243 15.263612 0.644244-1.734501 0.693801-3.320331 1.684944-4.955718 2.477859a46.980206 46.980206 0 0 0-5.500847 2.180516 25.224604 25.224604 0 0 1-7.73092 3.469002 2.378745 2.378745 0 0 1-1.536273 0c-1.040701-0.495572-0.495572-1.93273-0.495572-2.874316v-3.86546a2.230073 2.230073 0 0 1 0-1.23893z" fill="#6B2F46" p-id="6359"></path><path d="M959.922567 231.085128s21.309587-26.413977 33.748439-13.231767-7.334463 35.978512-14.867154 42.619174z" fill="#F4ADA2" p-id="6360"></path><path d="M975.731307 247.835455a2.428302 2.428302 0 0 1-2.428302-2.230073c-1.238929-12.736195 10.853022-22.647631 11.348594-23.093646a2.482815 2.482815 0 0 1 3.122103 3.86546s-10.506122 8.672506-9.564536 18.782171a2.428302 2.428302 0 0 1-2.230073 2.676088z" fill="#B45A8B" p-id="6361"></path><path d="M1087.08629 502.1629a298.829792 298.829792 0 0 1-14.024682-83.850748 498.049654 498.049654 0 0 0-8.821178-85.436577l2.230073 7.284905a284.408653 284.408653 0 0 1 11.546823 78.151672 221.768378 221.768378 0 0 0 2.27963 30.279437c1.288487 9.217635 3.022988 18.336156 4.955718 27.40512q2.329187 10.258336 5.203504 20.368001c0.495572 1.784058 1.040701 3.51856 1.585829 5.253061a25.571505 25.571505 0 0 1 0.991144 3.320331 8.821178 8.821178 0 0 1-0.545129 3.568117 4.162803 4.162803 0 0 0-0.396457 1.486715l-0.991144-2.329187a13.083095 13.083095 0 0 0-1.734501-3.419446c-0.545129-0.743358-1.982287-1.139815-2.27963-2.081401zM922.25911 499.090355l-4.658374-1.58583c20.91313-46.881092 35.036926-135.043314 35.13604-135.935343l2.923873 3.716788c-0.148672 0.842472-12.240623 86.27905-33.401539 133.804385zM944.857184 508.159319c-2.230073-30.92368 32.113052-152.933456 33.599768-158.285632l6.690219-8.226492c-0.3469 1.338044-38.010357 138.46276-35.879398 168.494411z" fill="#FFECAD" p-id="6362"></path><path d="M955.660649 511.776993a164.876736 164.876736 0 0 0 80.778203 5.500847c41.082902-8.821178 43.312975-16.601655 43.312975-16.601656s4.955718-7.780477-40.389101 0-64.622562 11.497266-83.702077 11.100809z" fill="#8D288E" p-id="6363"></path><path d="M895.300005 487.593089l-4.955718-0.991143c-61.550017-11.94328-119.977932-44.205004-184.897837-25.918405a82.810047 82.810047 0 0 0-42.470503 26.364419s-5.550404 6.045976 5.500847 4.410589-5.500847 9.366307-0.545129 11.546823 4.955718 7.73092 11.546823 8.276049 10.456565-19.277743 45.146591-15.957412c0 0-48.070464 27.306006-41.47936 33.20331a9.911436 9.911436 0 0 0 13.231767 0s-18.385714 19.822872-15.80874 26.413977c0 0 1.090258 1.734501 5.352175 0 0 0-1.238929 8.07782 7.879592 5.897304a27.05822 27.05822 0 0 0 8.920292-1.090258c2.230073-1.238929-2.874316 8.523835 6.194648 7.978706s31.121909-15.412283 39.100614-16.254755 42.123603-19.822872 84.544549 9.366307 105.160335 56.693413 162.993563 53.967769a94.753327 94.753327 0 0 0 71.16411-37.911242c16.552098-23.19276 14.272468-50.746552 13.083095-77.804772 0 0-51.242124 29.238736-100.254174 15.46184-28.297149-7.73092-55.454484-20.615787-84.247205-26.959106z" fill="#F4ADA2" p-id="6364"></path><path d="M724.724193 495.324009c0.644243-0.247786 54.760683-22.251174 140.197261-13.479553l25.422833 4.559261a590.622465 590.622465 0 0 0-165.620094 8.920292zM672.887383 507.366404l-2.230073-2.626531 28.64405-21.210473-27.107777 8.722064-3.617674-0.792915 55.702269-18.831728-51.390795 34.739583zM695.336786 532.442337a2.428302 2.428302 0 0 1-1.784059-0.842473 2.527416 2.527416 0 0 1 0.545129-3.469002l27.157334-19.822872a2.527416 2.527416 0 0 1 3.469003 0.545129 2.477859 2.477859 0 0 1-0.545129 3.469003l-27.157334 19.822871a2.27963 2.27963 0 0 1-1.684944 0.297344zM684.335092 558.806756a2.477859 2.477859 0 0 1-1.486716-4.460146l43.312975-31.617481a2.482815 2.482815 0 1 1 2.923874 4.014132l-43.312975 31.61748a2.477859 2.477859 0 0 1-1.437158 0.446015zM704.603978 560.689929a2.378745 2.378745 0 0 1-2.081401-1.139815 2.477859 2.477859 0 0 1 0.941586-3.17166l33.599768-21.706044a2.477859 2.477859 0 0 1 2.676087 4.162803l-33.55021 21.706044a2.329187 2.329187 0 0 1-1.58583 0.148672z" fill="#9C3C82" p-id="6365"></path><path d="M920.475052 717.637516c-22.647631-7.879592-49.210279-51.935924-50.350094-53.868654l4.311474-2.477859c0.247786 0.446015 24.77859 48.466922 45.543048 55.801384zM770.81237 750.791269c-0.644243-0.792915-15.164497-18.385714-20.665344-75.37647-3.369888-74.335769 69.380051-97.132072 70.321638-97.379857l6.789333-0.594686c-2.874316 0.842472-75.37647 27.553792-72.20481 97.578086 5.352175 55.058026 18.831728 71.461453 18.9804 71.610124z" fill="#FA847B" p-id="6366"></path></svg>