<?xml version="1.0" standalone="no"?><!DOCTYPE svg PUBLIC "-//W3C//DTD SVG 1.1//EN" "http://www.w3.org/Graphics/SVG/1.1/DTD/svg11.dtd"><svg t="1728139296115" class="icon" viewBox="0 0 1024 1024" version="1.1" xmlns="http://www.w3.org/2000/svg" p-id="7524" xmlns:xlink="http://www.w3.org/1999/xlink" width="256" height="256"><path d="M890.089068 1023.95033a101.426465 101.426465 0 0 1-29.392317-4.358557l-137.834691-41.412495a512.844393 512.844393 0 0 1-210.887078 45.733799C229.699467 1023.913077 0.061904 794.188591 0.061904 511.962747S229.724303 0 511.974982 0 1023.888059 229.662398 1023.888059 511.975165a507.35584 507.35584 0 0 1-72.816453 262.506791l35.762514 119.133876a101.140861 101.140861 0 0 1-96.745052 130.384168z m-173.423361-125.417152l165.550641 49.744664a26.610788 26.610788 0 0 0 33.328676-33.167248L869.910566 763.20683l9.400077-14.466434A433.198293 433.198293 0 0 0 949.38282 511.975165c0-241.235545-196.197128-437.469926-437.370586-437.469926S74.567143 270.73962 74.567143 511.975165s196.221964 437.395421 437.407839 437.432674a437.606519 437.606519 0 0 0 191.552968-44.46721z" fill="#FF943E" p-id="7525"></path><path d="M742.357597 734.249127q-7.450524-7.11525-29.802095-19.222352-21.308498-11.448972-41.400078-24.946837 55.084206-59.442763 55.096624-161.216919 0-67.054715-24.499806-116.724874a174.292588 174.292588 0 0 0-72.096236-76.641055q-47.69577-27.070237-114.154443-27.008149-48.949942 0-87.431898 15.323244c-25.64222 10.256888-47.372914 24.93442-65.266589 44.218859s-31.540551 42.579744-40.977881 69.985254a276.352348 276.352348 0 0 0-14.143578 90.337602q0 48.3539 13.547536 89.406286c9.027551 27.45518 22.525417 51.011253 40.369422 70.978658s39.972061 35.141638 66.297245 45.733799 56.12728 15.869616 89.406286 15.869615q61.590997 0 103.810633-21.532014c15.174234 10.840512 29.081878 20.402018 41.834691 28.560342a269.646876 269.646876 0 0 0 33.229337 18.62631c9.412495 4.346139 17.384556 6.457121 24.052774 6.45712a27.45518 27.45518 0 0 0 20.89872-9.313155c5.662398-6.20877 8.568102-12.41754 8.568102-18.626309-0.09934-8.828871-2.558013-15.534342-7.338766-20.265425z m-112.415987-140.3182a131.688009 131.688009 0 0 1-26.660458 48.937525q-62.398137-44.343035-88.959255-44.256112a23.059371 23.059371 0 0 0-16.018627 6.705471 20.315095 20.315095 0 0 0-7.301513 15.422585 18.241366 18.241366 0 0 0 7.587117 15.720605c5.078774 3.725262 14.441599 9.015134 28.150562 15.770276a224.186263 224.186263 0 0 1 34.297245 20.414435 121.369034 121.369034 0 0 1-44.355452 9.064804q-52.414435 0-86.848273-39.87272t-34.396585-113.508731q0-36.147458 9.164144-65.154831a136.121071 136.121071 0 0 1 25.083431-47.670936 104.915794 104.915794 0 0 1 37.910749-28.386496 116.935972 116.935972 0 0 1 47.956538-9.760186q36.457897 0 64.571207 17.645324t43.287544 52.054327c10.09546 22.860691 15.174234 50.030268 15.174233 81.322468a226.259992 226.259992 0 0 1-8.642607 65.552192z" fill="#FF943E" p-id="7526"></path></svg>