<?xml version="1.0" standalone="no"?><!DOCTYPE svg PUBLIC "-//W3C//DTD SVG 1.1//EN" "http://www.w3.org/Graphics/SVG/1.1/DTD/svg11.dtd"><svg t="1728139254886" class="icon" viewBox="0 0 1024 1024" version="1.1" xmlns="http://www.w3.org/2000/svg" p-id="7365" xmlns:xlink="http://www.w3.org/1999/xlink" width="256" height="256"><path d="M512 57.586854c251.153722 0 454.782657 203.628935 454.782657 454.782657 0 251.153722-203.628935 454.782657-454.782657 454.782657-251.153722 0-454.782657-203.628935-454.782657-454.782657C57.217343 261.215789 260.846278 57.586854 512 57.586854M512 0.739022c-282.135791 0-511.630489 229.494698-511.630489 511.630489s229.494698 511.630489 511.630489 511.630489 511.630489-229.494698 511.630489-511.630489S794.135791 0.739022 512 0.739022L512 0.739022z" p-id="7366"></path><path d="M821.138511 298.337423l-249.164048 277.019486 0 226.936546L449.922167 802.293455l0-226.936546L200.758119 298.337423 322.696719 298.337423l185.66502 215.112197 5.286848 0 185.608172-215.112197L821.138511 298.337423z" p-id="7367"></path></svg>