<?xml version="1.0" standalone="no"?><!DOCTYPE svg PUBLIC "-//W3C//DTD SVG 1.1//EN" "http://www.w3.org/Graphics/SVG/1.1/DTD/svg11.dtd"><svg t="1728483671741" class="icon" viewBox="0 0 1024 1024" version="1.1" xmlns="http://www.w3.org/2000/svg" p-id="5082" xmlns:xlink="http://www.w3.org/1999/xlink" width="256" height="256"><path d="M679.9 658.1C769 520 641 397.6 509.5 393.3c-138.2-4.6-183.3 123.3-185.5 169-4 85.1 46.3 57.3 66.5 115.6 31.7 91.5-27 99.9-35.5 102.4-19.5 5.9-35.4-8.1-35.4-8.1S168.2 622 195.8 502.4 305.7 233.1 451 242.2s376.5 25.2 396.1 260.2c19.7 234.9-203.2 217.9-203.2 217.9l36-62.2z" fill="#EFC76C" p-id="5083"></path><path d="M345.3 786.9c-16.5 0-28.4-10.4-29.1-10.9-6.5-6.4-153.4-153.7-125.5-274.8C220.1 373.6 305.9 227.9 451.3 237c142.4 9 380.9 24.1 401.1 265 6.1 73-10.3 129.7-48.7 168.4-61.5 61.9-156.2 55.4-160.2 55.1l-8.3-0.6 40.3-69.6c42.4-65.8 30.3-119.6 12.8-153.2-31.1-59.4-103-101-178.9-103.6-141.6-4.5-178.5 130.3-180 164-2.2 46.8 11.8 56.4 29.5 68.7 13 9 27.8 19.1 36.7 44.9 11.9 34.4 12.7 61.6 2.4 80.9-11.1 20.7-31.7 25.9-39.5 27.8l-1.9 0.5c-3.9 1.2-7.7 1.6-11.3 1.6z m-21.9-18.5s13.9 11.8 30.2 6.8c0.6-0.2 1.4-0.4 2.3-0.6 7.1-1.8 23.9-6.1 32.8-22.6 8.9-16.5 7.9-40.9-3-72.4-7.8-22.6-20.5-31.3-32.7-39.7-18.8-12.9-36.6-25.2-34.1-77.8 2.6-56.4 54.1-178.9 190.9-174 79.6 2.6 155.1 46.5 187.9 109.2 26.7 50.9 22 109.1-13.2 163.7L653 715.4h0.2c24.6 0 95.7-4.4 143.2-52.3 36.1-36.4 51.5-90.3 45.6-160.1-19.5-232-252.3-246.7-391.3-255.5-138.9-8.9-221.3 132.5-249.8 256.1-26.6 115.4 121 263.3 122.5 264.8z" fill="#221714" p-id="5084"></path><path d="M679.9 658.1C769 520 641 397.6 509.5 393.3c-138.2-4.6-183.3 123.3-185.5 169-4 85.1 46.3 57.3 66.5 115.6 31.7 91.5-27 99.9-35.5 102.4-19.5 5.9-35.4-8.1-35.4-8.1S168.2 622 195.8 502.4 305.7 233.1 451 242.2s376.5 25.2 396.1 260.2c19.7 234.9-203.2 217.9-203.2 217.9l36-62.2z" fill="#BF8743" p-id="5085"></path><path d="M701 716.1c-32.3 6.1-57 4.2-57 4.2l36-62.2c89-138.1-39-260.4-170.4-264.8-138.2-4.7-183.4 123.3-185.6 168.9-4 85.1 46.3 57.4 66.6 115.6 12.1 35.1 11 57.9 4.5 72.9-44.3-37.1-190.8-176.6-93-327.2 114.3-175.9 363.7-48.7 363.7-48.7S880.3 501 701 716.1z" fill="#DBA761" p-id="5086"></path><path d="M520.7 729.1c16.6-59.8 224.4-36.4 263.4-174.7C824.2 412 653.3 286.3 505.4 286.3S237.6 406.2 237.6 554.1c0 67.5 102.4 90.5 110.1 167.5 12.8 128.4-117.3 7.1-117.3 7.1-47.6-56.1-76-126.3-76-202.5 0-183.4 164-332.1 366.4-332.1s366.4 148.7 366.4 332.1c0 72.7-26.8 163.4-76.7 212.1-51.2 49.9-122 55.9-141.8 64.3-38.1 16.1-172.8 15.8-148-73.5z" fill="#FFDC88" p-id="5087"></path><path d="M616.1 815.9c-30.5 0-64.5-6.5-84.8-24.3-17.6-15.4-23-37.5-15.6-63.9 7.4-26.6 44.4-37.3 91.2-50.8 66.6-19.3 149.4-43.3 172.1-123.8 17.4-61.6-7.7-112.5-31.9-144.3-52.2-69-151.7-117.1-241.8-117.1-144.8 0-262.6 117.8-262.6 262.5 0 31.1 24.1 52.7 49.7 75.6 27.7 24.8 56.4 50.5 60.4 91.4 3.4 33.9-2.5 54-17.9 61.7-34.6 17.1-100.8-43.3-108.3-50.2-51-59.9-77.7-131.1-77.7-206.4 0-186 166.7-337.3 371.6-337.3s371.6 151.3 371.6 337.3c0 67.2-24.5 163.4-78.3 215.8-40.2 39.2-91.9 51.9-122.7 59.5-9.2 2.3-16.4 4.1-20.7 5.9-11.6 5-32 8.4-54.3 8.4zM505.4 281c93.2 0 196.1 49.9 250.2 121.3 36.6 48.4 48.2 101.5 33.6 153.5-24.3 86.2-110.3 111.1-179.4 131.1-42 12.2-78.2 22.7-84 43.6-6.3 22.5-2.1 40.5 12.4 53.2 30.9 27.1 101.7 25.4 128.3 14.1 5-2.1 12.6-4 22.3-6.4 29.8-7.4 79.8-19.7 117.9-56.9 51.6-50.3 75.1-143.2 75.1-208.3 0-180.2-162-326.8-361.1-326.8-199.1 0-361.1 146.6-361.1 326.8 0 72.8 25.8 141.6 74.7 199.1 18.4 17 72.2 59.9 96 48 13.6-6.7 14.1-31.6 12.1-51.2-3.7-36.9-30.8-61.2-57-84.6-26.1-23.4-53.2-47.6-53.2-83.4 0.1-150.6 122.6-273.1 273.2-273.1z" fill="#221714" p-id="5088"></path><path d="M520.7 729.1c16.6-59.8 224.4-36.4 263.4-174.7C824.2 412 653.3 286.3 505.4 286.3S237.6 406.2 237.6 554.1c0 67.5 102.4 90.5 110.1 167.5 12.8 128.4-117.3 7.1-117.3 7.1-47.6-56.1-76-126.3-76-202.5 0-183.4 164-332.1 366.4-332.1s366.4 148.7 366.4 332.1c0 72.7-26.8 163.4-76.7 212.1-51.2 49.9-122 55.9-141.8 64.3-38.1 16.1-172.8 15.8-148-73.5z" fill="#F3C47D" p-id="5089"></path><path d="M844.5 676.9c33-130.5 35.1-284.2-122.1-371.8-289.5-161.4-474.3-12.4-529.9 132.3-33 85.9 2.1 195.3 36.6 274.5C186.7 658.7 160 606 160 535.7c0-180.1 158.3-336 360.6-336s361.5 148.7 361.5 328.8c0.1 51.6-11 100.7-37.6 148.4z" fill="#FFE7B3" p-id="5090"></path><path d="M633.4 815.2c-1 0-2-0.3-2.9-0.9-15.1-10-23.6-22.2-25.3-36.2-2.9-22.9 13.8-41.6 14.5-42.4 1.9-2.1 5.2-2.3 7.4-0.4s2.3 5.3 0.4 7.4c-0.1 0.2-14.2 16.1-11.9 34.2 1.4 10.8 8.3 20.4 20.7 28.7 2.4 1.6 3.1 4.9 1.5 7.3-1.1 1.5-2.7 2.3-4.4 2.3zM664.6 794.2c-0.6 0-1.1-0.1-1.7-0.3-17.2-5.7-26-13-26.8-22.2C635 759 650.5 750 652.3 749c2.5-1.4 5.7-0.5 7.1 2 1.4 2.5 0.5 5.7-2 7.1-3.7 2.1-11.2 7.9-10.8 12.6 0.2 2 2.5 7.4 19.7 13.2 2.7 0.9 4.2 3.9 3.3 6.6-0.7 2.3-2.8 3.7-5 3.7z" fill="#231815" p-id="5091"></path><path d="M709.2 765.8s6.3-2.6 8.4 17.7" fill="#FFFFFF" p-id="5092"></path><path d="M717.6 788.8c-2.7 0-4.9-2-5.2-4.7-0.9-8.8-2.6-12-3.3-13-2 0-4-1.2-4.8-3.2-1.1-2.7 0.2-5.8 2.8-6.9 1.7-0.7 4.4-0.9 7.1 0.7 4.6 2.8 7.4 9.5 8.6 21.3 0.3 2.9-1.8 5.5-4.7 5.8h-0.5z m-6.4-18.1z" fill="#231815" p-id="5093"></path><path d="M769.8 738.4s-12.4 25.1-33.4 43.3c-12.7 10.9-60.4 33.5-56.9 38.8 6.3 9.6 43.1 9.4 95.4-9.8 20.6-7.5 55.4-62.5 68.3-102.7" fill="#ECBF7C" p-id="5094"></path><path d="M701.9 831.9c-13.5 0-23-2.8-26.8-8.5l-1.2-1.9 0.4-3.2c1.3-5.5 9.8-10.9 32.1-23.8 10.7-6.2 21.8-12.6 26.6-16.8 19.9-17.2 32.1-41.4 32.2-41.6 1.3-2.6 4.5-3.7 7-2.4 2.6 1.3 3.7 4.4 2.4 7-0.5 1.1-13.2 26.3-34.7 44.9-5.6 4.8-16.6 11.2-28.2 17.9-8.4 4.9-20.3 11.8-25.3 15.7 8.7 3.8 38 4.4 86.8-13.5 17.9-6.6 52-58.6 65.1-99.4 0.9-2.8 3.9-4.3 6.6-3.4 2.8 0.9 4.3 3.8 3.4 6.6-13.1 40.7-48.6 97.7-71.5 106.1-29.2 10.7-55.9 16.3-74.9 16.3z" fill="#231815" p-id="5095"></path></svg>