<?xml version="1.0" standalone="no"?><!DOCTYPE svg PUBLIC "-//W3C//DTD SVG 1.1//EN" "http://www.w3.org/Graphics/SVG/1.1/DTD/svg11.dtd"><svg t="1728402337238" class="icon" viewBox="0 0 1024 1024" version="1.1" xmlns="http://www.w3.org/2000/svg" p-id="3751" xmlns:xlink="http://www.w3.org/1999/xlink" width="256" height="256"><path d="M139.23808 687.36c-27.52-57.92-43.2-122.88-43.2-192C96.03808 256.32 282.27808 96 512.03808 96s416 160.32 416 399.36c0 64.64-13.76 126.08-38.08 181.12 2.88-36.16 1.28-79.36 0-105.92a480 480 0 0 0-19.84-116.48c-12.16-38.4-31.36-75.52-60.48-103.36-32.96-32-80.32-53.76-125.76-41.28-32.64 9.28-61.12 29.76-86.72 51.2-21.76 18.24-49.92 55.36-80.64 55.36H512.03808c-30.72 0-59.2-37.12-80.96-55.36-25.6-21.44-53.76-41.92-86.4-51.2-45.44-12.48-93.12 9.28-126.08 41.28-28.8 27.84-48.32 64.96-60.16 103.36a480 480 0 0 0-19.84 116.48c-1.6 29.12-3.2 79.04 0.64 116.8zM592.03808 688l-80 96-80-96z" fill="#E0EBFE" p-id="3752"></path><path d="M352.03808 512m-32 0a32 32 0 1 0 64 0 32 32 0 1 0-64 0Z" fill="#5465CF" p-id="3753"></path><path d="M672.03808 512m-32 0a32 32 0 1 0 64 0 32 32 0 1 0-64 0Z" fill="#5465CF" p-id="3754"></path><path d="M939.39808 634.72c13.376-44.032 20.64-90.816 20.64-139.36C960.03808 249.44 767.43008 64 512.03808 64S64.03808 249.44 64.03808 495.36c0 48.544 7.264 95.36 20.64 139.36L5.51008 853.056c-3.328 9.152-11.072 30.56 1.088 51.232 8.992 15.36 25.216 23.648 44.736 23.648 7.2 0 14.88-1.152 22.816-3.488a257.056 257.056 0 0 0 131.264-91.264C285.63808 911.584 393.38208 960 512.03808 960s226.4-48.448 306.624-126.816c32.832 43.392 79.52 76.128 131.2 91.264 7.968 2.336 15.648 3.488 22.88 3.488 19.52 0 35.744-8.256 44.736-23.616 12.16-20.704 4.416-42.112 1.088-51.264l-79.168-218.336zM512.03808 128c221.12 0 381.76 152.64 383.808 363.392a459.264 459.264 0 0 0-10.464-42.144c-14.592-45.952-36.352-83.008-64.608-110.016-42.24-40.992-95.04-57.92-141.28-45.184-37.248 10.56-69.056 34.592-92.608 54.336a328.96 328.96 0 0 0-17.728 16.544c-15.968 15.616-35.84 35.072-52.64 35.072H512.03808c-16.864 0-36.928-19.52-53.056-35.232-6.272-6.08-12.16-11.808-17.632-16.384-25.12-21.056-55.712-43.936-92.448-54.368-46.176-12.736-99.104 4.16-141.44 45.216-28.256 27.328-50.528 65.408-64.32 110.144-6.048 19.68-10.784 40.704-14.304 62.336-0.224-5.44-0.8-10.848-0.8-16.352C128.03808 282.496 289.54208 128 512.03808 128zM71.94208 857.6l49.28-135.808c11.84 21.856 25.344 42.56 40.32 62.08a193.376 193.376 0 0 1-89.6 73.728zM512.03808 896c-164.288 0-304.384-108.384-359.136-260.064-0.128-26.56 0.96-51.584 1.664-64.608 1.92-39.136 8.576-78.08 19.168-112.544 12.224-39.552 31.584-72.96 56-96.576C256.03808 336.64 298.91808 313.44 340.32608 324.8c30.816 8.768 57.984 29.216 80.48 48.064 4.992 4.16 10.24 9.312 15.904 14.784 20.256 19.744 45.472 44.32 75.36 44.32h4.48c29.824 0 54.88-24.512 75.008-44.192 5.632-5.536 10.944-10.752 15.904-14.912 22.464-18.784 49.6-39.2 80.704-48.032 35.136-9.6 76.352 4.32 110.432 37.44 24.448 23.328 43.392 55.84 56.288 96.48a468.48 468.48 0 0 1 19.136 112.544c0.704 14.72 1.376 33.088 1.536 52.224C824.13408 781.696 680.77408 896 512.03808 896z m350.528-112.128c14.944-19.52 28.48-40.224 40.32-62.08l49.248 135.808a193.408 193.408 0 0 1-89.6-73.728z" fill="#5465CF" p-id="3755"></path><path d="M592.03808 672h-160a16 16 0 0 0-12.288 26.24l80 96a16 16 0 0 0 24.576 0l80-96A16 16 0 0 0 592.03808 672zM512.03808 759.008L466.18208 704h91.712L512.03808 759.008z" fill="#5465CF" p-id="3756"></path></svg>