<?xml version="1.0" standalone="no"?><!DOCTYPE svg PUBLIC "-//W3C//DTD SVG 1.1//EN" "http://www.w3.org/Graphics/SVG/1.1/DTD/svg11.dtd"><svg t="1728544162707" class="icon" viewBox="0 0 1024 1024" version="1.1" xmlns="http://www.w3.org/2000/svg" p-id="11026" xmlns:xlink="http://www.w3.org/1999/xlink" width="256" height="256"><path d="M832 160c52.928 0 96 37.856 96 84.384v407.264C928 698.144 884.928 736 832 736H192c-52.928 0-96-37.856-96-84.384V244.384C96 197.856 139.072 160 192 160h640m0-32H192C121.312 128 64 180.096 64 244.384v407.264C64 715.904 121.312 768 192 768h640c70.688 0 128-52.096 128-116.384V244.384C960 180.096 902.688 128 832 128zM496 768h32v96h-32zM672 896H352a16 16 0 0 1 0-32h320a16 16 0 0 1 0 32z" p-id="11027"></path><path d="M607.968 336a16 16 0 0 1 16 16v192a16 16 0 0 1-32 0v-192a16 16 0 0 1 16-16z" p-id="11028"></path><path d="M416 528h192a16 16 0 0 1 0 32h-192a16 16 0 0 1 0-32z" p-id="11029"></path><path d="M422.464 339.808a16 16 0 0 1 11.328 4.704l171.36 171.36a16 16 0 0 1-22.624 22.624l-171.36-171.36a16 16 0 0 1 11.296-27.328z" p-id="11030"></path></svg>