<?xml version="1.0" standalone="no"?><!DOCTYPE svg PUBLIC "-//W3C//DTD SVG 1.1//EN" "http://www.w3.org/Graphics/SVG/1.1/DTD/svg11.dtd"><svg t="1728544110871" class="icon" viewBox="0 0 1024 1024" version="1.1" xmlns="http://www.w3.org/2000/svg" p-id="5788" xmlns:xlink="http://www.w3.org/1999/xlink" width="256" height="256"><path d="M919.170844 91.022222H104.7552C62.663111 91.022222 28.444444 125.309156 28.444444 167.406933v508.956445c0 42.097778 34.286933 76.379022 76.310756 76.379022h373.475556v108.305067H351.613156c-20.354844 0-36.801422 15.121067-36.801423 33.729422 0 18.602667 16.446578 33.735111 36.801423 33.735111h320.785066c20.354844 0 36.801422-15.132444 36.801422-33.735111 0-18.608356-16.446578-33.735111-36.801422-33.735111H545.763556v-108.299378h373.407288c42.097778 0 76.384711-34.218667 76.384712-76.379022V167.332978C995.555556 125.309156 961.336889 91.022222 919.170844 91.022222z m5.302045 573.422934a24.251733 24.251733 0 0 1-24.257422 24.32H123.790222a24.251733 24.251733 0 0 1-24.257422-24.32V179.2512a24.2688 24.2688 0 0 1 24.257422-24.251733H900.209778a24.223289 24.223289 0 0 1 24.257422 24.251733v485.193956z m-356.613689-370.346667c-14.358756-11.565511-26.066489-3.128889-26.066489 17.288533v54.431289h-2.366578c-83.911111 0-226.639644 96.938667-227.822933 183.148089 0 6.900622 5.575111 8.851911 10.939733 0 27.107556-48.366933 141.056-73.454933 199.111111-73.454933h20.138667V532.935111c0 17.146311 12.686222 28.854044 27.113245 17.282845L701.5936 443.733333c14.358756-11.502933 14.358756-30.390044 0-41.955555L567.864889 294.104178z" p-id="5789"></path></svg>