<?xml version="1.0" standalone="no"?><!DOCTYPE svg PUBLIC "-//W3C//DTD SVG 1.1//EN" "http://www.w3.org/Graphics/SVG/1.1/DTD/svg11.dtd"><svg t="1728270898680" class="icon" viewBox="0 0 1024 1024" version="1.1" xmlns="http://www.w3.org/2000/svg" p-id="28600" xmlns:xlink="http://www.w3.org/1999/xlink" width="256" height="256"><path d="M330.745355 336.1479l-20.753673 0c0-67.027579 18.763342-118.874411 55.775304-154.101727 53.271274-50.704822 124.359332-47.799656 127.371946-47.662533l-1.00591 20.729114c-0.655939-0.042979-65.530482-2.474354-112.230084 42.128493C347.283006 228.396827 330.745355 275.131221 330.745355 336.1479z" fill="#2c2c2c" p-id="28601"></path><path d="M854.196151 899.954823 693.931051 899.954823 693.931051 879.20115 833.442478 879.20115 833.442478 843.456041 854.196151 843.456041Z" fill="#2c2c2c" p-id="28602"></path><path d="M447.19453 555.680848c-98.974176-27.757181-171.790598-118.731148-171.790598-226.450499 0-129.693828 105.514125-235.207953 235.20693-235.207953s235.207953 105.514125 235.207953 235.207953c0 109.394503-75.073836 201.587228-176.405709 227.7634l0 5.002944c14.791891 2.233877 29.434379 5.310959 43.898813 9.206686 94.062306-40.074717 160.177096-133.444245 160.177096-241.97303 0-144.95337-117.927853-262.879176-262.879176-262.879176-144.9503 0-262.879176 117.925806-262.879176 262.879176 0 108.528785 66.113767 201.898313 160.177096 241.97303 12.96222-3.491521 26.057469-6.389524 39.285748-8.544607L447.193507 555.680848z" fill="#2c2c2c" p-id="28603"></path><path d="M913.961326 847.277066c-36.227086-85.386716-92.249007-157.615761-162.008814-208.881354-42.793642-31.446199-89.647763-54.002938-138.63957-67.192332-14.045901 5.984295-28.736485 10.712993-43.898813 14.19121l0 4.481058c136.583748 21.898753 255.058047 119.454626 317.975005 265.638009l0 77.876672L133.83259 933.390329l0-77.876672c62.206784-144.529721 178.733731-241.48082 313.361941-264.820388l0-6.365988c-13.531178-3.363607-26.665313-7.747451-39.285748-13.123902-48.991808 13.189394-95.845928 35.746132-138.640594 67.192332-69.758784 51.265594-125.781728 123.494639-162.008814 208.881354l-1.098008 2.592035 0 111.191428 808.897967 0L915.059334 849.869101 913.961326 847.277066z" fill="#2c2c2c" p-id="28604"></path><path d="M569.412083 585.39459c15.162328-3.478218 29.853935-8.207939 43.898813-14.19121-14.465456-3.895727-29.106922-6.972808-43.898813-9.206686L569.412083 585.39459z" fill="#2c2c2c" p-id="28605"></path><path d="M447.19453 562.658773c-13.228279 2.15406-26.323529 5.053086-39.285748 8.544607 12.620435 5.376451 25.753547 9.760295 39.285748 13.123902L447.19453 562.658773z" fill="#2c2c2c" p-id="28606"></path></svg>