<?xml version="1.0" standalone="no"?><!DOCTYPE svg PUBLIC "-//W3C//DTD SVG 1.1//EN" "http://www.w3.org/Graphics/SVG/1.1/DTD/svg11.dtd"><svg t="1728552797390" class="icon" viewBox="0 0 1024 1024" version="1.1" xmlns="http://www.w3.org/2000/svg" p-id="7043" xmlns:xlink="http://www.w3.org/1999/xlink" width="256" height="256"><path d="M278 122v780h468V122H278z m429 663H317V161h390v624zM237.2 638.5l10 10-136.9 136.9-29.9-29.9 107-107-107-107h0.1l-10-10 116.9-117-107-107 29.9-29.9 107 107 19.9 19.9 10 10-117 117 87.1 87.1zM786.8 638.5l-10 10 136.9 136.9 29.9-29.9-107-107 107-107h-0.1l10-10-116.9-117 107-107-29.9-29.9-107 107-19.9 19.9-10 10 117 117-87.1 87.1z" p-id="7044"></path></svg>